# Blender 4.5.0
# www.blender.org
mtllib chair2.mtl
o Cube
v 0.205000 0.400000 -0.175000
v 0.205000 0.450000 0.175000
v -0.205000 0.400000 -0.175000
v -0.205000 0.450000 0.175000
v 0.205000 0.450000 -0.225000
v -0.205000 0.450000 -0.225000
v -0.205000 0.900000 -0.275000
v 0.205000 0.900000 -0.275000
v -0.205000 0.400000 0.225000
v 0.205000 0.400000 0.225000
v 0.225000 0.400000 -0.175000
v 0.225000 0.450000 0.175000
v 0.225000 0.450000 -0.225000
v 0.225000 0.900000 -0.275000
v 0.225000 0.400000 0.225000
v -0.225000 0.400000 -0.175000
v -0.225000 0.450000 0.175000
v -0.225000 0.450000 -0.225000
v -0.225000 0.900000 -0.275000
v -0.225000 0.400000 0.225000
v 0.205000 0.400000 0.135000
v 0.205000 0.360000 0.175000
v 0.205000 0.394641 0.155000
v 0.205000 0.380000 0.169641
v -0.205000 0.360000 0.175000
v -0.205000 0.400000 0.135000
v -0.205000 0.380000 0.169641
v -0.205000 0.394641 0.155000
v -0.205000 0.410000 0.225000
v -0.205000 0.450000 0.185000
v -0.205000 0.430000 0.219641
v -0.205000 0.444641 0.205000
v 0.205000 0.410000 0.225000
v 0.205000 0.450000 0.185000
v 0.205000 0.430000 0.219641
v 0.205000 0.444641 0.205000
v 0.225000 0.360000 0.175000
v 0.225000 0.400000 0.135000
v 0.225000 0.440000 0.175000
v 0.225000 0.400000 0.215000
v 0.225000 0.380000 0.169641
v 0.225000 0.394641 0.155000
v 0.225000 0.450000 0.185000
v 0.225000 0.410000 0.225000
v 0.225000 0.444641 0.205000
v 0.225000 0.430000 0.219641
v -0.225000 0.400000 0.135000
v -0.225000 0.360000 0.175000
v -0.225000 0.400000 0.215000
v -0.225000 0.440000 0.175000
v -0.225000 0.394641 0.155000
v -0.225000 0.380000 0.169641
v -0.225000 0.410000 0.225000
v -0.225000 0.450000 0.185000
v -0.225000 0.430000 0.219641
v -0.225000 0.444641 0.205000
v 0.205000 0.450000 -0.135000
v 0.205000 0.490000 -0.175000
v 0.205000 0.455359 -0.155000
v 0.205000 0.470000 -0.169641
v -0.205000 0.490000 -0.175000
v -0.205000 0.450000 -0.135000
v -0.205000 0.470000 -0.169641
v -0.205000 0.455359 -0.155000
v 0.225000 0.490000 -0.175000
v 0.225000 0.450000 -0.135000
v 0.225000 0.410000 -0.175000
v 0.225000 0.450000 -0.215000
v 0.225000 0.470000 -0.169641
v 0.225000 0.455359 -0.155000
v -0.225000 0.450000 -0.135000
v -0.225000 0.490000 -0.175000
v -0.225000 0.450000 -0.215000
v -0.225000 0.410000 -0.175000
v -0.225000 0.455359 -0.155000
v -0.225000 0.470000 -0.169641
v -0.205000 0.900000 -0.265000
v -0.205000 0.890185 -0.253085
v 0.205000 0.890185 -0.253085
v 0.205000 0.900000 -0.265000
v 0.225000 0.900000 -0.265000
v 0.225000 0.890185 -0.253085
v -0.225000 0.890185 -0.253085
v -0.225000 0.900000 -0.265000
v 0.205000 0.009923 -0.223760
v 0.205000 0.000000 -0.235000
v -0.225000 0.000000 -0.235000
v -0.224504 0.009923 -0.223760
v 0.205000 0.000000 -0.265000
v 0.205000 0.009923 -0.273760
v -0.224504 0.009923 -0.273760
v -0.225000 0.000000 -0.265000
v -0.205000 0.000000 0.235000
v -0.205000 0.009905 0.223624
v 0.205000 0.000000 0.235000
v 0.205000 0.009905 0.223624
v -0.205000 0.009923 0.273760
v -0.205000 0.000000 0.265000
v 0.205000 0.009923 0.273760
v 0.205000 0.000000 0.265000
v 0.225000 0.000000 0.235000
v 0.225000 0.009905 0.223624
v 0.225000 0.009923 0.273760
v 0.225000 0.000000 0.265000
v -0.225000 0.009905 0.223624
v -0.225000 0.000000 0.235000
v -0.225000 0.000000 0.265000
v -0.225000 0.009923 0.273760
v 0.205000 0.440000 -0.225000
v 0.205000 0.400000 -0.185000
v 0.205000 0.360309 -0.229961
v 0.205425 0.400000 -0.225000
v 0.205000 0.420000 -0.219641
v 0.205000 0.405359 -0.205000
v -0.205000 0.400000 -0.185000
v -0.205000 0.440000 -0.225000
v -0.205425 0.400000 -0.225000
v -0.206982 0.360358 -0.229955
v -0.205000 0.405359 -0.205000
v -0.205000 0.420000 -0.219641
v 0.225000 0.400000 -0.185000
v 0.225000 0.440000 -0.225000
v 0.225000 0.405359 -0.205000
v 0.225000 0.420000 -0.219641
v -0.225000 0.440000 -0.225000
v -0.225000 0.400000 -0.185000
v -0.225000 0.420000 -0.219641
v -0.225000 0.405359 -0.205000
vn -0.0000 -0.1104 -0.9939
vn 1.0000 -0.0000 -0.0000
vn -1.0000 -0.0000 -0.0000
vn -0.0000 0.2588 0.9659
vn -0.0000 0.7071 0.7071
vn -0.0000 0.9659 0.2588
vn -0.0000 -0.9659 -0.2588
vn -0.0000 -0.7071 -0.7071
vn -0.0000 -0.2588 -0.9659
vn -0.0000 -1.0000 -0.0000
vn -0.0000 -0.0000 1.0000
vn -0.0000 1.0000 -0.0000
vn -0.0000 0.7719 0.6358
vn -0.0000 0.1915 0.9815
vn -0.0000 -0.6618 0.7497
vn -0.0000 -0.7542 -0.6567
vn -0.0000 -0.7497 0.6618
vn -0.0000 -0.6618 -0.7497
vn -0.0000 -0.1240 0.9923
vn -0.0000 -0.1376 -0.9905
vn -0.0000 0.1240 0.9923
vn 0.9999 -0.0009 0.0142
vn -0.9994 0.0323 0.0142
vn -0.0000 0.1240 -0.9923
vn -0.0000 -0.0000 -1.0000
vn -0.9988 0.0499 -0.0000
vt 0.625000 0.500000
vt 0.625000 0.250000
vt 0.331406 0.384490
vt 0.337361 0.406712
vt 0.353629 0.422980
vt 0.375851 0.428934
vt 0.331406 0.473379
vt 0.286962 0.428934
vt 0.375000 0.024469
vt 0.375000 0.000000
vt 0.375000 0.000000
vt 0.548077 0.000000
vt 0.425000 1.000000
vt 0.425000 1.000000
vt 0.525000 1.000000
vt 0.525000 1.000000
vt 0.211389 0.281805
vt 0.233611 0.281805
vt 0.233611 0.298073
vt 0.211389 0.298073
vt 0.875000 0.750000
vt 0.875000 0.750000
vt 0.875000 0.750000
vt 0.125000 0.721429
vt 0.375000 0.721429
vt 0.375000 0.735714
vt 0.125000 0.735714
vt 0.375000 0.750000
vt 0.125000 0.750000
vt 0.375000 0.750000
vt 0.125000 0.750000
vt 0.689167 0.320295
vt 0.233611 0.320295
vt 0.689167 0.298073
vt 0.689167 0.281805
vt 0.689167 0.462267
vt 0.233611 0.462267
vt 0.233611 0.440045
vt 0.689167 0.440045
vt 0.125000 0.750000
vt 0.125000 0.735714
vt 0.425000 0.750000
vt 0.425000 0.750000
vt 0.525000 0.750000
vt 0.525000 0.750000
vt 0.711389 0.281805
vt 0.711389 0.298073
vt 0.625000 0.750000
vt 0.608633 0.750000
vt 0.625000 0.750000
vt 0.375000 0.724492
vt 0.375000 0.746739
vt 0.125000 0.500000
vt 0.375000 0.500000
vt 0.375000 1.000000
vt 0.331406 0.484490
vt 0.320295 0.484490
vt 0.298073 0.478535
vt 0.281805 0.462267
vt 0.275851 0.440045
vt 0.275851 0.428934
vt 0.625000 0.000000
vt 0.425000 0.000000
vt 0.525000 0.000000
vt 0.598205 0.000000
vt 0.720295 0.528934
vt 0.714341 0.506712
vt 0.698073 0.490444
vt 0.675851 0.484490
vt 0.720295 0.440045
vt 0.764740 0.484490
vt 0.625000 0.221429
vt 0.625000 0.235714
vt 0.625000 0.246172
vt 0.625000 0.250000
vt 0.425000 0.250000
vt 0.233611 0.675851
vt 0.689167 0.675851
vt 0.689167 0.698073
vt 0.233611 0.698073
vt 0.689167 0.714341
vt 0.233611 0.714341
vt 0.233611 0.506712
vt 0.689167 0.506712
vt 0.689167 0.528934
vt 0.233611 0.528934
vt 0.625000 0.500000
vt 0.625000 0.500000
vt 0.625000 0.514286
vt 0.625000 0.503261
vt 0.625000 0.528572
vt 0.625000 0.525411
vt 0.211389 0.675851
vt 0.211389 0.698073
vt 0.875000 0.514286
vt 0.875000 0.514286
vt 0.875000 0.500000
vt 0.875000 0.500000
vt 0.233611 0.331406
vt 0.689167 0.331406
vt 0.211389 0.331406
vt 0.720295 0.428934
vt 0.375000 0.250000
vt 0.875000 0.500000
vt 0.711389 0.820295
vt 0.689167 0.820295
vt 0.689167 0.807056
vt 0.711389 0.807056
vt 0.689167 0.973584
vt 0.233611 0.973584
vt 0.211389 0.973584
vt 0.211389 0.528934
vt 0.625000 0.500000
vt 0.375000 0.750000
vt 0.375000 0.500000
vt 0.125288 0.500000
vt 0.125000 0.750000
vt 0.125000 0.750000
vt 0.689167 0.428934
vt 0.233611 0.428934
vt 0.233611 -0.004485
vt 0.689167 -0.004485
vt 0.375000 1.000000
vt 0.221673 -0.004485
vt 0.231406 -0.015510
vt 0.264740 -0.015510
vt 0.277379 -0.004505
vt 0.575000 0.500000
vt 0.475000 0.500000
vt 0.393931 0.500000
vt 0.375000 0.500000
vt 0.375000 0.475610
vt 0.375000 0.250000
vt 0.404338 0.250000
vt 0.556451 0.250000
vt 0.375000 0.274390
vt 0.391368 0.500000
vt 0.475000 0.500000
vt 0.575000 0.500000
vt 0.391367 0.250000
vt 0.475000 0.250000
vt 0.575000 0.250000
vt 0.425000 0.500000
s 0
usemtl Material
f 5/1/1 8/1/1 14/1/1 13/1/1
f 5/1/1 6/2/1 7/2/1 8/1/1
f 7/2/1 6/2/1 18/2/1 19/2/1
f 37/3/2 41/4/2 42/5/2 38/6/2 39/7/2 40/8/2
f 47/9/3 51/10/3 52/11/3 48/10/3 49/11/3 50/12/3
f 53/13/4 29/14/4 31/15/4 55/16/4
f 55/17/5 31/18/5 32/19/5 56/20/5
f 56/21/6 32/22/6 30/21/6 54/23/6
f 26/24/7 21/25/7 23/26/7 28/27/7
f 28/27/8 23/26/8 24/28/8 27/29/8
f 27/29/9 24/28/9 22/30/9 25/31/9
f 34/32/6 30/33/6 32/19/6 36/34/6
f 36/34/5 32/19/5 31/18/5 35/35/5
f 35/36/4 31/37/4 29/38/4 33/39/4
f 25/31/9 48/29/9 52/40/9 27/29/9
f 27/29/8 52/40/8 51/41/8 28/27/8
f 28/27/7 51/41/7 47/24/7 26/24/7
f 33/42/4 44/43/4 46/44/4 35/45/4
f 35/35/5 46/46/5 45/47/5 36/34/5
f 36/48/6 45/49/6 43/50/6 34/48/6
f 21/25/7 38/51/7 42/52/7 23/26/7
f 23/26/8 42/52/8 41/30/8 24/28/8
f 24/28/9 41/30/9 37/28/9 22/30/9
f 3/53/10 1/54/10 21/25/10 26/24/10
f 21/25/10 1/54/10 11/54/10 38/51/10
f 3/53/10 26/24/10 47/24/10 16/53/10
f 9/55/11 29/14/11 53/13/11 20/55/11
f 10/28/11 33/42/11 29/14/11 9/55/11
f 2/50/12 4/21/12 30/21/12 34/48/12
f 30/21/12 4/21/12 17/21/12 54/23/12
f 2/50/12 34/48/12 43/50/12 12/50/12
f 33/42/11 10/28/11 15/28/11 44/43/11
f 40/8/2 39/7/2 12/56/2 43/57/2 45/58/2 46/59/2 44/60/2 15/61/2
f 17/62/3 50/12/3 49/11/3 20/10/3 53/63/3 55/64/3 56/65/3 54/62/3
f 65/66/2 69/67/2 70/68/2 66/69/2 67/70/2 68/71/2
f 71/72/3 75/73/3 76/74/3 72/2/3 73/75/3 74/76/3
f 62/77/6 57/78/6 59/79/6 64/80/6
f 64/80/5 59/79/5 60/81/5 63/82/5
f 63/83/4 60/84/4 58/85/4 61/86/4
f 65/87/4 58/1/4 60/88/4 69/88/4
f 69/88/5 60/88/5 59/89/5 70/90/5
f 70/90/6 59/89/6 57/91/6 66/92/6
f 71/93/6 62/77/6 64/80/6 75/94/6
f 75/95/5 64/96/5 63/97/5 76/97/5
f 76/97/4 63/97/4 61/97/4 72/98/4
f 57/91/12 2/50/12 12/50/12 66/92/12
f 57/78/12 62/77/12 4/99/12 2/100/12
f 4/99/12 62/77/12 71/93/12 17/101/12
f 11/102/2 67/70/2 66/69/2 12/56/2 39/7/2 38/6/2
f 47/9/3 50/12/3 17/62/3 71/72/3 74/76/3 16/103/3
f 78/104/13 79/87/13 80/88/13 77/104/13
f 81/105/13 80/106/13 79/107/13 82/108/13
f 77/104/13 84/97/13 83/98/13 78/104/13
f 61/86/14 58/85/14 79/109/14 78/110/14
f 77/104/12 80/88/12 8/1/12 7/104/12
f 77/104/12 7/104/12 19/104/12 84/97/12
f 61/86/14 78/110/14 83/111/14 72/112/14
f 8/1/12 80/88/12 81/1/12 14/1/12
f 79/87/14 58/1/14 65/87/14 82/113/14
f 65/87/2 68/1/2 13/1/2 14/1/2 81/1/2 82/113/2
f 18/2/3 73/75/3 72/2/3 83/2/3 84/2/3 19/2/3
f 103/28/15 99/114/15 100/30/15 104/30/15
f 96/28/16 102/28/16 101/28/16 95/30/16
f 85/54/17 88/53/17 87/53/17 86/54/17
f 89/115/18 92/53/18 91/116/18 90/54/18
f 94/29/16 96/28/16 95/30/16 93/29/16
f 98/29/15 100/30/15 99/114/15 97/29/15
f 93/29/16 106/117/16 105/118/16 94/29/16
f 97/29/15 108/29/15 107/117/15 98/29/15
f 86/54/10 87/53/10 92/53/10 89/115/10
f 1/54/19 3/53/19 88/53/19 85/54/19
f 25/31/20 22/30/20 96/28/20 94/29/20
f 93/29/10 95/30/10 100/30/10 98/29/10
f 93/29/10 98/29/10 107/117/10 106/117/10
f 25/31/20 94/29/20 105/118/20 48/29/20
f 96/28/20 22/30/20 37/28/20 102/28/20
f 100/30/10 95/30/10 101/28/10 104/30/10
f 10/119/21 9/120/21 97/121/21 99/122/21
f 97/123/21 9/55/21 20/55/21 108/55/21
f 10/28/21 99/114/21 103/28/21 15/28/21
f 37/3/2 40/8/2 15/61/2 103/124/2 104/125/2 101/126/2 102/127/2
f 20/10/3 49/11/3 48/10/3 105/10/3 106/10/3 107/10/3 108/10/3
f 109/128/22 113/129/22 114/130/22 110/131/22 111/54/22 112/132/22
f 115/133/23 119/103/23 120/134/23 116/135/23 117/136/23 118/103/23
f 121/54/7 110/131/7 114/130/7 123/137/7
f 123/137/8 114/130/8 113/129/8 124/138/8
f 124/138/9 113/129/9 109/128/9 122/139/9
f 115/133/7 126/103/7 128/140/7 119/103/7
f 119/103/8 128/140/8 127/141/8 120/134/8
f 120/134/9 127/141/9 125/142/9 116/135/9
f 118/103/24 117/136/24 112/132/24 111/54/24 90/54/24 91/103/24
f 117/136/25 116/135/25 6/2/25 5/1/25 109/128/25 112/132/25
f 109/128/25 5/1/25 13/1/25 122/139/25
f 111/54/2 110/131/2 1/54/2 85/54/2 86/54/2 89/115/2 90/54/2
f 1/54/10 110/131/10 121/54/10 11/54/10
f 115/133/10 3/103/10 16/103/10 126/103/10
f 6/2/25 116/135/25 125/142/25 18/2/25
f 3/103/26 115/133/26 118/103/26 91/103/26 92/103/26 87/103/26 88/133/26
f 68/1/2 67/143/2 11/54/2 121/54/2 123/137/2 124/138/2 122/139/2 13/1/2
f 16/103/3 74/76/3 73/75/3 18/2/3 125/142/3 127/141/3 128/140/3 126/103/3
